<svg xmlns="http://www.w3.org/2000/svg" viewBox="0 0 265.4707 118.80664"><defs><style>.cls-1{stroke:#00aeef;stroke-miterlimit:10;stroke-width:2px;}</style></defs><title>ACMB</title><g id="Layer_2" data-name="Layer 2"><g id="Layer_2-2" data-name="Layer 2"><path class="cls-1" d="M20.189,139.124,50.811,38.09229q1.82958-5.48951,7.68945-5.49024,5.67333,0,7.13867,4.65674L95.96338,139.82861a7.30269,7.30269,0,0,1,.36182,2.19727,7.086,7.086,0,0,1-2.17237,5.22949,6.87139,6.87139,0,0,1-4.97656,2.15332q-5.97217,0-7.6001-5.36279l-6.01123-20.0376H40.74023l-6.624,21.46582a4.47536,4.47536,0,0,1-2.2749,2.667,7.99821,7.99821,0,0,1-4.36768,1.26758,7.49134,7.49134,0,0,1-5.55029-2.19726,7.31169,7.31169,0,0,1-2.18408-5.36133A8.94477,8.94477,0,0,1,20.189,139.124ZM58.39453,66.7915,45.3501,109.06689H71.07959Z" transform="translate(-18.73926 -31.60205)"/><path class="cls-1" d="M154.89063,134.64307h27.44824a7.77083,7.77083,0,0,1,5.481,2.15332,7.07578,7.07578,0,0,1,.00147,10.459,7.7553,7.7553,0,0,1-5.477,2.15332H153.919a22.44852,22.44852,0,0,1-11.22559-3.33984q-5.79419-3.33912-8.05664-7.47071l-17.5625-32.959a32.49184,32.49184,0,0,1-3.53076-14.58984,29.1783,29.1783,0,0,1,3.34961-14.32618l17.74365-32.60742a23.1223,23.1223,0,0,1,7.87549-8.042,18.99068,18.99068,0,0,1,10.32031-3.47168H182.8877a7.37407,7.37407,0,0,1,5.38623,2.19727,7.06425,7.06425,0,0,1,2.21777,5.18554,7.60972,7.60972,0,0,1-7.6001,7.5586H153.937q-3.61962.01024-5.88672,4.13769l-16.86816,30.5708a17.19345,17.19345,0,0,0-1.977,8.53223,18.60027,18.60027,0,0,0,2.1582,9.15039l16.10254,30.0625A7.65892,7.65892,0,0,0,154.89063,134.64307Z" transform="translate(-18.73926 -31.60205)"/><path class="cls-1" d="M237.22217,78.481v-3.7793l-15.752-21.79687v89.12109a7.01607,7.01607,0,0,1-2.21777,5.22949,7.44414,7.44414,0,0,1-5.38623,2.15332,7.36549,7.36549,0,0,1-5.38672-2.19726,7.054,7.054,0,0,1-2.21777-5.18555V32.60205h19.667l18.68262,26.46338L263.918,32.60205H283.21V142.02588a6.88381,6.88381,0,0,1-2.30859,5.22949,7.755,7.755,0,0,1-5.47657,2.15332,7.408,7.408,0,0,1-5.34082-2.19726,6.98714,6.98714,0,0,1-2.26367-5.18555V53.25635L252.43066,74.3501V78.481A6.99329,6.99329,0,0,1,250.168,83.6665a7.64592,7.64592,0,0,1-10.728,0A7.054,7.054,0,0,1,237.22217,78.481Z" transform="translate(-18.73926 -31.60205)"/></g></g></svg>